<svg width="24" height="24" viewBox="0 0 24 24" fill="none" xmlns="http://www.w3.org/2000/svg">
<path fill-rule="evenodd" clip-rule="evenodd" d="M14 3C14.5523 3 15 3.44772 15 4V4H19C19.5523 4 20 4.44772 20 5V5C20 5.55228 19.5523 6 19 6V6V19C19 20.1 18.1 21 17 21H7C5.9 21 5 20.1 5 19V6V6C4.44772 6 4 5.55228 4 5V5C4 4.44772 4.44772 4 5 4H9V4C9 3.44772 9.44772 3 10 3H14ZM7 19H17V6H7V19ZM9 9C9 8.44772 9.44772 8 10 8V8C10.5523 8 11 8.44772 11 9V16C11 16.5523 10.5523 17 10 17V17C9.44772 17 9 16.5523 9 16V9ZM15 9C15 8.44772 14.5523 8 14 8V8C13.4477 8 13 8.44772 13 9V16C13 16.5523 13.4477 17 14 17V17C14.5523 17 15 16.5523 15 16V9Z" fill="#333333"/>
</svg>
